M48
; DRILL file {KiCad 9.0.2} date 2025-07-26T17:38:50-1000
; FORMAT={-:-/ absolute / metric / decimal}
; #@! TF.CreationDate,2025-07-26T17:38:50-10:00
; #@! TF.GenerationSoftware,Kicad,Pcbnew,9.0.2
; #@! TF.FileFunction,Plated,1,2,PTH
FMAT,2
METRIC
; #@! TA.AperFunction,Plated,PTH,ViaDrill
T1C0.300
; #@! TA.AperFunction,Plated,PTH,ComponentDrill
T2C0.800
; #@! TA.AperFunction,Plated,PTH,ComponentDrill
T3C1.000
; #@! TA.AperFunction,Plated,PTH,ComponentDrill
T4C1.500
; #@! TA.AperFunction,Plated,PTH,ComponentDrill
T5C2.000
%
G90
G05
T1
X59.52Y-77.77
X75.08Y-46.31
X75.94Y-61.67
X79.01Y-78.65
X80.28Y-40.76
X81.81Y-77.18
X91.18Y-81.45
X93.44Y-60.94
X98.92Y-43.28
X103.59Y-40.241
X108.484Y-40.599
X108.95Y-71.77
X111.35Y-79.9
X119.13Y-27.38
X120.14Y-42.68
X124.11Y-64.62
X126.08Y-60.45
X139.46Y-44.77
X148.09Y-64.06
X151.55Y-60.66
X154.93Y-82.14
X165.33Y-80.95
X166.32Y-72.68
X168.3Y-77.2
X168.92Y-60.64
X169.12Y-63.39
X174.342Y-45.252
X178.13Y-63.28
X181.66Y-60.24
X191.35Y-42.09
X192.28Y-27.98
X192.291Y-29.041
X193.17Y-28.69
X196.06Y-32.57
X196.18Y-45.53
X196.874Y-30.316
X198.34Y-60.95
X201.01Y-43.931
X212.97Y-66.32
X217.7Y-58.19
X221.669Y-78.601
X221.8Y-57.48
X222.31Y-51.21
X222.98Y-30.54
X223.76Y-44.24
X228.45Y-66.46
X229.15Y-53.74
X231.19Y-48.55
X233.11Y-51.7
X233.18Y-64.48
X235.23Y-42.73
X241.65Y-32.02
X242.18Y-27.77
X245.25Y-30.81
X245.78Y-39.39
X249.171Y-80.391
X249.82Y-64.5
X251.63Y-42.08
X254.21Y-78.445
X259.11Y-82.99
X261.8Y-81.51
X262.02Y-69.95
X262.52Y-78.43
X264.54Y-29.97
X264.71Y-57.71
X264.75Y-60.9
X265.086Y-47.51
X265.57Y-40.294
X265.739Y-56.255
X265.83Y-45.61
X266.47Y-53.94
X266.68Y-61.29
X267.87Y-64.71
X267.95Y-49.62
X268.75Y-59.11
X269.86Y-61.93
X271.98Y-64.69
X274.77Y-56.71
X277.57Y-63.13
X278.74Y-62.71
X279.77Y-63.07
X286.07Y-83.4
X295.25Y-41.67
X295.94Y-80.21
X298.2Y-81.72
X300.17Y-66.94
X301.23Y-45.09
X301.37Y-29.97
X301.6Y-61.08
X309.9Y-46.67
X310.19Y-63.77
X312.31Y-61.1
X333.75Y-44.33
X341.95Y-61.3
X342.535Y-52.01
X342.99Y-58.31
X344.86Y-49.692
X349.96Y-92.2
X352.06Y-39.32
X365.43Y-53.62
X370.92Y-49.692
X371.509Y-90.87
X373.13Y-62.04
X373.77Y-96.67
X375.49Y-60.14
X375.5Y-80.2
X376.63Y-59.3
X384.47Y-45.18
X386.31Y-50.88
X390.05Y-103.82
X390.06Y-28.76
X391.06Y-47.06
X391.49Y-45.03
X417.66Y-39.39
X421.63Y-47.29
X425.26Y-84.59
X428.73Y-82.83
X428.89Y-57.123
X429.36Y-58.66
X433.24Y-27.42
X433.51Y-59.3
X434.02Y-83.24
X435.99Y-101.5
X438.63Y-32.65
X443.81Y-85.48
X448.53Y-39.59
X448.87Y-53.43
X456.11Y-82.73
X456.38Y-36.21
X458.58Y-37.63
X458.87Y-81.89
X459.47Y-75.79
X460.6Y-103.8
X461.634Y-102.134
X461.77Y-81.71
X462.319Y-56.81
X462.32Y-52.94
X463.13Y-72.55
X463.84Y-48.84
X465.16Y-74.18
X468.62Y-74.28
X469.13Y-57.89
X469.299Y-69.979
X469.449Y-65.249
X469.5Y-73.64
X472.89Y-54.47
X495.51Y-50.6
X495.706Y-47.644
X496.071Y-43.259
X497.24Y-49.56
T2
X34.442Y-33.934
X34.442Y-41.554
X37.16Y-109.14
X37.16Y-116.76
X40.437Y-52.121
X40.437Y-59.741
X46.228Y-71.577
X46.228Y-79.197
X54.102Y-33.934
X54.102Y-41.554
X55.32Y-90.22
X55.32Y-97.84
X59.22Y-108.08
X59.22Y-115.7
X63.043Y-52.324
X63.043Y-59.944
X67.92Y-71.679
X67.92Y-79.299
X72.796Y-33.934
X72.796Y-41.554
X77.35Y-90.98
X77.35Y-98.6
X81.737Y-52.476
X81.737Y-60.096
X83.1Y-109.36
X83.1Y-116.98
X87.224Y-71.78
X87.224Y-79.4
X91.796Y-33.579
X91.796Y-41.199
X96.49Y-90.98
X96.49Y-98.6
X101.6Y-52.324
X101.6Y-59.944
X106.172Y-71.78
X106.172Y-79.4
X110.49Y-33.122
X110.49Y-40.742
X115.79Y-90.68
X115.79Y-98.3
X121.006Y-51.562
X121.006Y-59.182
X125.07Y-71.679
X125.07Y-79.299
X129.845Y-33.579
X129.845Y-41.199
X134.63Y-90.53
X134.63Y-98.15
X139.09Y-51.511
X139.09Y-59.131
X143.967Y-71.933
X143.967Y-79.553
X148.844Y-33.426
X148.844Y-41.046
X153.77Y-90.37
X153.77Y-97.99
X158.242Y-52.172
X158.242Y-59.792
X163.017Y-71.78
X163.017Y-79.4
X164.78Y-109.72
X164.78Y-117.34
X168.199Y-33.122
X168.199Y-40.742
X172.46Y-90.07
X172.46Y-97.69
X177.343Y-52.375
X177.343Y-59.995
X181.813Y-71.933
X181.813Y-79.553
X187.198Y-33.426
X187.198Y-41.046
X191.75Y-90.53
X191.75Y-98.15
X196.342Y-51.664
X196.342Y-59.284
X201.27Y-71.73
X201.27Y-79.35
X206.248Y-33.579
X206.248Y-41.199
X210.91Y-89.95
X210.91Y-97.57
X215.494Y-52.375
X215.494Y-59.995
X220.218Y-71.73
X220.218Y-79.35
X225.4Y-33.426
X225.4Y-41.046
X229.9Y-89.94
X229.9Y-97.56
X234.442Y-52.222
X234.442Y-59.842
X239.268Y-71.628
X239.268Y-79.248
X239.35Y-109.7
X239.35Y-117.32
X243.637Y-33.274
X243.637Y-40.894
X248.89Y-90.7
X248.89Y-98.32
X253.39Y-52.222
X253.39Y-59.842
X259.791Y-71.425
X259.791Y-79.045
X263.144Y-33.274
X263.144Y-40.894
X274.371Y-52.68
X274.371Y-60.3
X276.9Y-109.68
X276.9Y-117.3
X293.2Y-91.57
X293.2Y-99.19
X297.485Y-52.68
X297.485Y-60.3
X299.212Y-71.222
X299.212Y-78.842
X300.533Y-33.63
X300.533Y-41.25
X301.88Y-108.77
X301.88Y-116.39
X329.489Y-52.324
X329.489Y-59.944
X329.54Y-33.122
X329.54Y-40.742
X329.77Y-108.61
X329.77Y-116.23
X348.55Y-109.88
X348.55Y-117.5
X348.691Y-52.883
X348.691Y-60.503
X348.742Y-33.274
X348.742Y-40.894
X352.27Y-91.02
X352.27Y-98.64
X369.7Y-109.34
X369.7Y-116.96
X378.32Y-109.57
X378.32Y-117.19
X396.392Y-52.476
X396.392Y-60.096
X396.58Y-70.663
X396.58Y-78.283
X396.58Y-90.3
X396.58Y-97.92
X396.697Y-33.579
X396.697Y-41.199
X414.54Y-109.94
X414.54Y-117.56
X415.36Y-90.5
X415.36Y-98.12
X415.595Y-52.781
X415.595Y-60.401
X415.646Y-33.63
X415.646Y-41.25
X415.646Y-71.476
X415.646Y-79.096
X431.31Y-46.07
X434.23Y-66.17
X434.23Y-73.79
X435.03Y-96.06
X435.03Y-103.68
X435.102Y-33.122
X435.102Y-40.742
X438.93Y-46.07
X453.82Y-99.18
X453.82Y-106.8
X454.0Y-32.969
X454.0Y-40.589
X454.406Y-62.027
X454.406Y-69.647
T3
X461.47Y-106.65
X461.47Y-109.15
X461.47Y-111.65
X472.89Y-26.53
X472.89Y-29.07
X472.89Y-31.61
X472.89Y-34.15
X472.89Y-36.69
X472.89Y-39.23
X472.89Y-41.77
X472.89Y-44.31
X472.89Y-46.85
X472.89Y-49.39
X472.89Y-51.93
X472.89Y-54.47
X472.89Y-57.01
X472.89Y-59.55
X472.89Y-62.09
X472.89Y-64.63
X472.89Y-67.17
X472.89Y-69.71
X472.89Y-72.25
X472.89Y-74.79
X479.59Y-106.7
X479.59Y-109.2
X479.59Y-111.7
X490.67Y-26.53
X490.67Y-29.07
X490.67Y-31.61
X490.67Y-34.15
X490.67Y-36.69
X490.67Y-39.23
X490.67Y-41.77
X490.67Y-44.31
X490.67Y-46.85
X490.67Y-49.39
X490.67Y-51.93
X490.67Y-54.47
X490.67Y-57.01
X490.67Y-59.55
X490.67Y-62.09
X490.67Y-64.63
X490.67Y-67.17
X490.67Y-69.71
X490.67Y-72.25
X490.67Y-74.79
T4
X21.18Y-33.782
X23.56Y-109.95
X26.06Y-52.883
X27.53Y-31.242
X28.397Y-71.882
X29.91Y-107.41
X32.41Y-50.343
X32.88Y-90.84
X34.747Y-69.342
X39.23Y-88.3
X40.234Y-33.782
X44.97Y-110.02
X46.584Y-31.242
X49.733Y-52.832
X51.32Y-107.48
X54.407Y-71.882
X56.083Y-50.292
X59.284Y-33.782
X60.757Y-69.342
X64.12Y-90.99
X65.634Y-31.242
X66.38Y-109.99
X68.682Y-52.832
X70.47Y-88.45
X72.73Y-107.45
X73.609Y-71.882
X75.032Y-50.292
X78.334Y-33.782
X79.959Y-69.342
X83.19Y-90.96
X84.684Y-31.242
X87.833Y-52.832
X89.54Y-88.42
X92.761Y-71.882
X94.183Y-50.292
X97.384Y-33.782
X99.111Y-69.342
X102.36Y-90.96
X103.734Y-31.242
X106.934Y-52.832
X108.71Y-88.42
X111.811Y-71.882
X113.284Y-50.292
X116.434Y-33.782
X118.161Y-69.342
X121.39Y-90.96
X122.784Y-31.242
X126.035Y-52.832
X127.74Y-88.42
X130.912Y-71.882
X132.385Y-50.292
X135.433Y-33.782
X137.262Y-69.342
X137.97Y-109.99
X140.44Y-90.93
X141.783Y-31.242
X144.32Y-107.45
X145.136Y-52.832
X146.79Y-88.39
X150.012Y-71.882
X151.486Y-50.292
X154.534Y-33.833
X156.362Y-69.342
X159.43Y-90.9
X160.884Y-31.293
X164.084Y-52.832
X165.78Y-88.36
X168.961Y-71.882
X170.434Y-50.292
X173.584Y-33.833
X175.311Y-69.342
X178.35Y-90.93
X179.934Y-31.293
X183.083Y-52.832
X184.7Y-88.39
X187.808Y-71.882
X189.433Y-50.292
X192.583Y-33.782
X194.158Y-69.342
X197.44Y-90.87
X198.933Y-31.242
X202.184Y-52.832
X203.79Y-88.33
X206.908Y-71.882
X208.534Y-50.292
X211.633Y-33.833
X213.258Y-69.342
X216.45Y-109.99
X216.59Y-90.87
X217.983Y-31.293
X221.285Y-52.832
X222.8Y-107.45
X222.94Y-88.33
X226.06Y-71.882
X227.635Y-50.292
X230.683Y-33.833
X232.41Y-69.342
X235.73Y-90.87
X237.033Y-31.293
X240.386Y-52.832
X242.08Y-88.33
X245.212Y-71.882
X246.736Y-50.292
X249.733Y-33.782
X251.562Y-69.342
X254.5Y-109.95
X256.083Y-31.242
X259.537Y-52.832
X260.85Y-107.41
X265.887Y-50.292
X271.12Y-90.98
X275.946Y-71.882
X277.47Y-88.44
X278.435Y-33.833
X282.296Y-69.342
X283.108Y-52.832
X284.785Y-31.293
X285.52Y-109.99
X289.458Y-50.292
X291.87Y-107.45
X316.433Y-33.68
X316.47Y-109.95
X316.484Y-52.832
X322.783Y-31.14
X322.82Y-107.41
X322.834Y-50.292
X335.483Y-33.68
X335.57Y-90.91
X335.585Y-52.832
X335.61Y-109.92
X341.833Y-31.14
X341.92Y-88.37
X341.935Y-50.292
X341.96Y-107.38
X354.62Y-109.99
X360.97Y-107.45
X383.083Y-33.731
X383.184Y-52.832
X383.2Y-91.01
X383.235Y-71.933
X389.433Y-31.191
X389.534Y-50.292
X389.55Y-88.47
X389.585Y-69.393
X392.628Y-109.981
X398.978Y-107.441
X402.133Y-33.68
X402.285Y-52.832
X402.285Y-71.933
X402.3Y-91.01
X408.483Y-31.14
X408.635Y-50.292
X408.635Y-69.393
X408.65Y-88.47
X421.06Y-110.03
X421.284Y-33.68
X421.31Y-91.01
X421.386Y-52.832
X421.386Y-71.984
X427.41Y-107.49
X427.634Y-31.14
X427.66Y-88.47
X427.736Y-50.292
X427.736Y-69.444
X440.233Y-33.68
X440.33Y-100.45
X440.334Y-62.382
X446.583Y-31.14
X446.68Y-97.91
X446.684Y-59.842
T5
G00X468.72Y-103.55
M15
G01X469.22Y-103.55
M16
G05
G00X468.72Y-114.75
M15
G01X469.22Y-114.75
M16
G05
G00X486.84Y-103.6
M15
G01X487.34Y-103.6
M16
G05
G00X486.84Y-114.8
M15
G01X487.34Y-114.8
M16
G05
M30
