M48
; DRILL file {KiCad 9.0.2} date 2025-07-26T17:38:50-1000
; FORMAT={-:-/ absolute / metric / decimal}
; #@! TF.CreationDate,2025-07-26T17:38:50-10:00
; #@! TF.GenerationSoftware,Kicad,Pcbnew,9.0.2
; #@! TF.FileFunction,NonPlated,1,2,NPTH
FMAT,2
METRIC
; #@! TA.AperFunction,NonPlated,NPTH,ComponentDrill
T1C1.700
; #@! TA.AperFunction,NonPlated,NPTH,ComponentDrill
T2C1.850
; #@! TA.AperFunction,NonPlated,NPTH,ComponentDrill
T3C2.200
; #@! TA.AperFunction,NonPlated,NPTH,ComponentDrill
T4C3.048
; #@! TA.AperFunction,NonPlated,NPTH,ComponentDrill
T5C3.988
; #@! TA.AperFunction,NonPlated,NPTH,ComponentDrill
T6C4.000
%
G90
G05
T1
X19.91Y-36.322
X22.29Y-112.49
X24.79Y-55.423
X27.127Y-74.422
X30.07Y-36.322
X31.61Y-93.38
X32.45Y-112.49
X34.95Y-55.423
X37.287Y-74.422
X38.964Y-36.322
X41.77Y-93.38
X43.7Y-112.56
X48.463Y-55.372
X49.124Y-36.322
X53.137Y-74.422
X53.86Y-112.56
X58.014Y-36.322
X58.623Y-55.372
X62.85Y-93.53
X63.297Y-74.422
X65.11Y-112.53
X67.412Y-55.372
X68.174Y-36.322
X72.339Y-74.422
X73.01Y-93.53
X75.27Y-112.53
X77.064Y-36.322
X77.572Y-55.372
X81.92Y-93.5
X82.499Y-74.422
X86.563Y-55.372
X87.224Y-36.322
X91.491Y-74.422
X92.08Y-93.5
X96.114Y-36.322
X96.723Y-55.372
X101.09Y-93.5
X101.651Y-74.422
X105.664Y-55.372
X106.274Y-36.322
X110.541Y-74.422
X111.25Y-93.5
X115.164Y-36.322
X115.824Y-55.372
X120.12Y-93.5
X120.701Y-74.422
X124.765Y-55.372
X125.324Y-36.322
X129.642Y-74.422
X130.28Y-93.5
X134.163Y-36.322
X134.925Y-55.372
X136.7Y-112.53
X139.17Y-93.47
X139.802Y-74.422
X143.866Y-55.372
X144.323Y-36.322
X146.86Y-112.53
X148.742Y-74.422
X149.33Y-93.47
X153.264Y-36.373
X154.026Y-55.372
X158.16Y-93.44
X158.902Y-74.422
X162.814Y-55.372
X163.424Y-36.373
X167.691Y-74.422
X168.32Y-93.44
X172.314Y-36.373
X172.974Y-55.372
X177.08Y-93.47
X177.851Y-74.422
X181.813Y-55.372
X182.474Y-36.373
X186.538Y-74.422
X187.24Y-93.47
X191.313Y-36.322
X191.973Y-55.372
X196.17Y-93.41
X196.698Y-74.422
X200.914Y-55.372
X201.473Y-36.322
X205.638Y-74.422
X206.33Y-93.41
X210.363Y-36.373
X211.074Y-55.372
X215.18Y-112.53
X215.32Y-93.41
X215.798Y-74.422
X220.015Y-55.372
X220.523Y-36.373
X224.79Y-74.422
X225.34Y-112.53
X225.48Y-93.41
X229.413Y-36.373
X230.175Y-55.372
X234.46Y-93.41
X234.95Y-74.422
X239.116Y-55.372
X239.573Y-36.373
X243.942Y-74.422
X244.62Y-93.41
X248.463Y-36.322
X249.276Y-55.372
X253.23Y-112.49
X254.102Y-74.422
X258.267Y-55.372
X258.623Y-36.322
X263.39Y-112.49
X268.427Y-55.372
X269.85Y-93.52
X274.676Y-74.422
X277.165Y-36.373
X280.01Y-93.52
X281.838Y-55.372
X284.25Y-112.53
X284.836Y-74.422
X287.325Y-36.373
X291.998Y-55.372
X294.41Y-112.53
X315.163Y-36.22
X315.2Y-112.49
X315.214Y-55.372
X325.323Y-36.22
X325.36Y-112.49
X325.374Y-55.372
X334.213Y-36.22
X334.3Y-93.45
X334.315Y-55.372
X334.34Y-112.46
X344.373Y-36.22
X344.46Y-93.45
X344.475Y-55.372
X344.5Y-112.46
X353.35Y-112.53
X363.51Y-112.53
X381.813Y-36.271
X381.914Y-55.372
X381.93Y-93.55
X381.965Y-74.473
X391.358Y-112.521
X391.973Y-36.271
X392.074Y-55.372
X392.09Y-93.55
X392.125Y-74.473
X400.863Y-36.22
X401.015Y-55.372
X401.015Y-74.473
X401.03Y-93.55
X401.518Y-112.521
X411.023Y-36.22
X411.175Y-55.372
X411.175Y-74.473
X411.19Y-93.55
X419.79Y-112.57
X420.014Y-36.22
X420.04Y-93.55
X420.116Y-55.372
X420.116Y-74.524
X429.95Y-112.57
X430.174Y-36.22
X430.2Y-93.55
X430.276Y-55.372
X430.276Y-74.524
X438.963Y-36.22
X439.06Y-102.99
X439.064Y-64.922
X449.123Y-36.22
X449.22Y-102.99
X449.224Y-64.922
T2
X479.355Y-29.69
X484.205Y-29.69
T3
X479.055Y-26.66
X484.505Y-26.66
T4
X24.91Y-86.035
X48.83Y-86.065
X91.66Y-105.02
X191.7Y-105.105
X208.24Y-105.105
X232.24Y-105.055
X246.43Y-105.155
X262.92Y-85.915
X267.83Y-66.975
X270.23Y-28.835
X270.38Y-105.005
X287.16Y-85.965
X291.68Y-67.015
X294.23Y-28.935
X384.59Y-105.145
X408.34Y-105.005
X451.505Y-53.01
X451.555Y-114.95
X451.605Y-76.91
X451.605Y-91.05
T5
X24.91Y-101.245
X48.83Y-101.275
X91.66Y-120.23
X191.7Y-120.315
X208.24Y-120.315
X232.24Y-120.265
X246.43Y-120.365
X262.92Y-101.125
X267.83Y-82.185
X270.23Y-44.045
X270.38Y-120.215
X287.16Y-101.175
X291.68Y-82.225
X294.23Y-44.145
X384.59Y-120.355
X408.34Y-120.215
X436.295Y-53.01
X436.345Y-114.95
X436.395Y-76.91
X436.395Y-91.05
T6
X24.99Y-36.322
X27.37Y-112.49
X29.87Y-55.423
X32.207Y-74.422
X36.69Y-93.38
X44.044Y-36.322
X48.78Y-112.56
X53.543Y-55.372
X58.217Y-74.422
X63.094Y-36.322
X67.93Y-93.53
X70.19Y-112.53
X72.492Y-55.372
X77.419Y-74.422
X82.144Y-36.322
X87.0Y-93.5
X91.643Y-55.372
X96.571Y-74.422
X101.194Y-36.322
X106.17Y-93.5
X110.744Y-55.372
X115.621Y-74.422
X120.244Y-36.322
X125.2Y-93.5
X129.845Y-55.372
X134.722Y-74.422
X139.243Y-36.322
X141.78Y-112.53
X144.25Y-93.47
X148.946Y-55.372
X153.822Y-74.422
X158.344Y-36.373
X163.24Y-93.44
X167.894Y-55.372
X172.771Y-74.422
X177.394Y-36.373
X182.16Y-93.47
X186.893Y-55.372
X191.618Y-74.422
X196.393Y-36.322
X201.25Y-93.41
X205.994Y-55.372
X210.718Y-74.422
X215.443Y-36.373
X220.26Y-112.53
X220.4Y-93.41
X225.095Y-55.372
X229.87Y-74.422
X234.493Y-36.373
X239.54Y-93.41
X244.196Y-55.372
X249.022Y-74.422
X253.543Y-36.322
X258.31Y-112.49
X263.347Y-55.372
X274.93Y-93.52
X279.756Y-74.422
X282.245Y-36.373
X286.918Y-55.372
X289.33Y-112.53
X320.243Y-36.22
X320.28Y-112.49
X320.294Y-55.372
X339.293Y-36.22
X339.38Y-93.45
X339.395Y-55.372
X339.42Y-112.46
X358.43Y-112.53
X386.893Y-36.271
X386.994Y-55.372
X387.01Y-93.55
X387.045Y-74.473
X396.438Y-112.521
X405.943Y-36.22
X406.095Y-55.372
X406.095Y-74.473
X406.11Y-93.55
X424.87Y-112.57
X425.094Y-36.22
X425.12Y-93.55
X425.196Y-55.372
X425.196Y-74.524
X444.043Y-36.22
X444.14Y-102.99
X444.144Y-64.922
M30
